<svg width="70" height="63" viewBox="0 0 70 63" fill="none" xmlns="http://www.w3.org/2000/svg">
<path d="M51.8592 41.7367C53.4185 40.6718 55.2475 40.0702 57.1344 40.0015C59.0214 39.9327 60.8892 40.3996 62.5219 41.3481C64.1546 42.2966 65.4854 43.688 66.3603 45.3612C67.2352 47.0345 67.6185 48.9213 67.4659 50.8033C63.4665 52.2011 59.2185 52.745 54.9959 52.4C54.9829 48.6221 53.895 44.9225 51.8592 41.74C50.0522 38.9059 47.5596 36.5735 44.612 34.9583C41.6644 33.3432 38.357 32.4977 34.9959 32.5C31.6353 32.4983 28.3286 33.3441 25.3816 34.9592C22.4347 36.5742 19.9426 38.9064 18.1359 41.74M54.9925 52.3967L54.9959 52.5C54.9959 53.25 54.9559 53.99 54.8725 54.72C48.8237 58.1904 41.9695 60.0112 34.9959 60C27.7625 60 20.9725 58.08 15.1192 54.72C15.0335 53.9486 14.9923 53.1728 14.9959 52.3967M14.9959 52.3967C10.7746 52.7542 6.52891 52.2123 2.53255 50.8067C2.38038 48.9252 2.76386 47.039 3.63864 45.3663C4.51342 43.6936 5.84378 42.3027 7.47589 41.3543C9.108 40.4059 10.9752 39.9388 12.8616 40.0071C14.748 40.0754 16.5766 40.6761 18.1359 41.74M14.9959 52.3967C15.0079 48.6191 16.1013 44.9229 18.1359 41.74M44.9959 12.5C44.9959 15.1522 43.9423 17.6957 42.0669 19.5711C40.1916 21.4464 37.648 22.5 34.9959 22.5C32.3437 22.5 29.8002 21.4464 27.9248 19.5711C26.0494 17.6957 24.9959 15.1522 24.9959 12.5C24.9959 9.84783 26.0494 7.3043 27.9248 5.42893C29.8002 3.55357 32.3437 2.5 34.9959 2.5C37.648 2.5 40.1916 3.55357 42.0669 5.42893C43.9423 7.3043 44.9959 9.84783 44.9959 12.5ZM64.9959 22.5C64.9959 23.4849 64.8019 24.4602 64.425 25.3701C64.0481 26.2801 63.4956 27.1069 62.7992 27.8033C62.1027 28.4997 61.2759 29.0522 60.366 29.4291C59.4561 29.806 58.4808 30 57.4959 30C56.511 30 55.5357 29.806 54.6258 29.4291C53.7158 29.0522 52.889 28.4997 52.1926 27.8033C51.4961 27.1069 50.9437 26.2801 50.5668 25.3701C50.1899 24.4602 49.9959 23.4849 49.9959 22.5C49.9959 20.5109 50.7861 18.6032 52.1926 17.1967C53.5991 15.7902 55.5068 15 57.4959 15C59.485 15 61.3927 15.7902 62.7992 17.1967C64.2057 18.6032 64.9959 20.5109 64.9959 22.5ZM19.9959 22.5C19.9959 23.4849 19.8019 24.4602 19.425 25.3701C19.0481 26.2801 18.4956 27.1069 17.7992 27.8033C17.1027 28.4997 16.2759 29.0522 15.366 29.4291C14.4561 29.806 13.4808 30 12.4959 30C11.511 30 10.5357 29.806 9.62576 29.4291C8.71581 29.0522 7.88902 28.4997 7.19258 27.8033C6.49614 27.1069 5.9437 26.2801 5.56679 25.3701C5.18987 24.4602 4.99588 23.4849 4.99588 22.5C4.99588 20.5109 5.78606 18.6032 7.19258 17.1967C8.5991 15.7902 10.5068 15 12.4959 15C14.485 15 16.3927 15.7902 17.7992 17.1967C19.2057 18.6032 19.9959 20.5109 19.9959 22.5Z" stroke="#1D2E9E" stroke-width="5" stroke-linecap="round" stroke-linejoin="round"/>
</svg>
